<svg xmlns="http://www.w3.org/2000/svg" viewBox="0 0 512 512" role="img" aria-label="Car Tracker">
  <rect width="512" height="512" fill="#0c6c67"/>
  <circle cx="256" cy="256" r="196" fill="#fff8ea" opacity=".13"/>
  <path fill="#fff8ea" d="M126 265c11-41 30-80 47-107 9-15 25-24 43-24h80c18 0 34 9 44 25 16 27 35 66 46 106l28 15c16 9 26 25 26 44v62c0 14-11 25-25 25h-28c-11 25-36 42-65 42s-54-17-65-42H195c-11 25-36 42-65 42s-54-17-65-42H37c-14 0-25-11-25-25v-62c0-19 10-35 26-44l88-15Zm66-17h128c-9-27-23-55-34-75h-60c-11 20-25 48-34 75Zm-62 157a33 33 0 1 0 0-66 33 33 0 0 0 0 66Zm192 0a33 33 0 1 0 0-66 33 33 0 0 0 0 66Z"/>
  <path fill="#f59e0b" d="M352 77a24 24 0 0 1 48 0v35h35a24 24 0 0 1 0 48h-35v35a24 24 0 0 1-48 0v-35h-35a24 24 0 0 1 0-48h35V77Z"/>
</svg>
